<svg width="16" height="12" viewBox="0 0 16 12" fill="none" xmlns="http://www.w3.org/2000/svg">
<path d="M9 1C9 0.447715 8.55228 0 8 0C7.44772 0 7 0.447715 7 1L9 1ZM7.29289 11.7071C7.68342 12.0976 8.31658 12.0976 8.70711 11.7071L15.0711 5.34315C15.4616 4.95262 15.4616 4.31946 15.0711 3.92893C14.6805 3.53841 14.0474 3.53841 13.6569 3.92893L8 9.58579L2.34315 3.92893C1.95262 3.53841 1.31946 3.53841 0.928932 3.92893C0.538408 4.31946 0.538408 4.95262 0.928932 5.34315L7.29289 11.7071ZM7 1L7 11H9V1L7 1Z" fill="#082652" fill-opacity="0.5"/>
</svg>
