<svg width="25" height="24" viewBox="0 0 25 24" fill="none" xmlns="http://www.w3.org/2000/svg">
<g clip-path="url(#clip0_0_252)">
<path d="M13.5 2V3H20.5V5H13.5V19H17.5V21H7.5V19H11.5V5H4.5V3H11.5V2H13.5ZM5.5 6.343L8.328 9.172C9.052 9.895 9.5 10.895 9.5 12C9.5 14.21 7.71 16 5.5 16C3.29 16 1.5 14.21 1.5 12C1.5 10.895 1.948 9.895 2.672 9.172L5.5 6.343ZM19.5 6.343L22.328 9.172C23.052 9.895 23.5 10.895 23.5 12C23.5 14.21 21.71 16 19.5 16C17.29 16 15.5 14.21 15.5 12C15.5 10.895 15.948 9.895 16.672 9.172L19.5 6.343ZM19.5 9.172L18.086 10.586C17.712 10.96 17.5 11.46 17.5 12L21.5 12.001C21.5 11.461 21.288 10.96 20.914 10.586L19.5 9.172ZM5.5 9.172L4.086 10.586C3.712 10.96 3.5 11.46 3.5 12L7.5 12.001C7.5 11.461 7.288 10.96 6.914 10.586L5.5 9.172Z" fill="#0C0D36"/>
</g>
<defs>
<clipPath id="clip0_0_252">
<rect width="24" height="24" fill="white" transform="translate(0.5)"/>
</clipPath>
</defs>
</svg>
