<svg width="25" height="24" viewBox="0 0 25 24" fill="none" xmlns="http://www.w3.org/2000/svg">
<g clip-path="url(#clip0_0_95)">
<path d="M13.8 2V3H20.8V5H13.8V19H17.8V21H7.79999V19H11.8V5H4.79999V3H11.8V2H13.8ZM5.79999 6.343L8.62799 9.172C9.35199 9.895 9.79999 10.895 9.79999 12C9.79999 14.21 8.00999 16 5.79999 16C3.58999 16 1.79999 14.21 1.79999 12C1.79999 10.895 2.24799 9.895 2.97199 9.172L5.79999 6.343ZM19.8 6.343L22.628 9.172C23.352 9.895 23.8 10.895 23.8 12C23.8 14.21 22.01 16 19.8 16C17.59 16 15.8 14.21 15.8 12C15.8 10.895 16.248 9.895 16.972 9.172L19.8 6.343ZM19.8 9.172L18.386 10.586C18.012 10.96 17.8 11.46 17.8 12L21.8 12.001C21.8 11.461 21.588 10.96 21.214 10.586L19.8 9.172ZM5.79999 9.172L4.38599 10.586C4.01199 10.96 3.79999 11.46 3.79999 12L7.79999 12.001C7.79999 11.461 7.58799 10.96 7.21399 10.586L5.79999 9.172Z" fill="#6FA0E4"/>
</g>
<defs>
<clipPath id="clip0_0_95">
<rect width="24" height="24" fill="white" transform="translate(0.799988)"/>
</clipPath>
</defs>
</svg>
