<svg width="158" height="12" viewBox="0 0 158 12" fill="none" xmlns="http://www.w3.org/2000/svg">
<path fill-rule="evenodd" clip-rule="evenodd" d="M7.16743 11.3687C11.2364 11.3687 13.8925 9.26362 13.8925 5.99999C13.8925 2.73637 11.2364 0.631256 7.16743 0.631256C3.08437 0.631256 0.442383 2.73637 0.442383 5.99999C0.442383 9.24949 3.08437 11.3687 7.16743 11.3687ZM7.16743 9.24949C4.93517 9.24949 3.4517 7.93556 3.4517 5.99999C3.4517 4.05029 4.93517 2.75049 7.16743 2.75049C9.38557 2.75049 10.869 4.05029 10.869 5.99999C10.869 7.94969 9.38557 9.24949 7.16743 9.24949Z" fill="white"/>
<path d="M35.0165 11.0155H32.4311V0.984462H35.4828L40.6961 6.67815L40.7224 6.71015C41.0363 7.09214 41.3086 7.42353 41.4873 7.80841H41.5438V0.984462H44.1293V11.0155H41.2895L35.8784 5.26532C35.6099 4.9545 35.2285 4.44589 35.073 4.12094H35.0165V11.0155Z" fill="white"/>
<path fill-rule="evenodd" clip-rule="evenodd" d="M63.6788 11.0155H69.9941C73.5968 11.0155 76.0975 8.9528 76.0975 5.83045C76.0975 2.69398 73.7381 0.984462 70.0506 0.984462H63.6788V11.0155ZM66.5327 9.07995V2.92003H69.6127C71.6613 2.92003 73.0741 3.92314 73.0741 5.88697C73.0741 7.89318 71.7743 9.07995 69.6268 9.07995H66.5327Z" fill="white"/>
<path d="M94.4616 6.49448V0.984462H97.3296V6.22605C97.3296 7.92144 98.3893 9.12234 100.367 9.12234C102.275 9.12234 103.391 7.92144 103.391 6.22605V0.984462H106.245V6.52274C106.245 9.41903 104.154 11.3687 100.367 11.3687C96.5667 11.3687 94.4616 9.4049 94.4616 6.49448Z" fill="white"/>
<path d="M128.255 0.984462H125.402V11.0155H128.255V0.984462Z" fill="white"/>
<path d="M146.647 0.984462H157.836V3.2026H153.669V11.0155H150.815V3.2026H146.647V0.984462Z" fill="white"/>
</svg>
