<svg width="22" height="16" viewBox="0 0 22 16" fill="none" xmlns="http://www.w3.org/2000/svg">
<g clip-path="url(#clip0_0_55)">
<mask id="mask0_0_55" style="mask-type:alpha" maskUnits="userSpaceOnUse" x="0" y="0" width="22" height="16">
<path d="M19.5 0.5H2.5C1.39543 0.5 0.5 1.39543 0.5 2.5V13.5C0.5 14.6046 1.39543 15.5 2.5 15.5H19.5C20.6046 15.5 21.5 14.6046 21.5 13.5V2.5C21.5 1.39543 20.6046 0.5 19.5 0.5Z" fill="white"/>
</mask>
<g mask="url(#mask0_0_55)">
<path d="M19.5 0.5H2.5C1.39543 0.5 0.5 1.39543 0.5 2.5V13.5C0.5 14.6046 1.39543 15.5 2.5 15.5H19.5C20.6046 15.5 21.5 14.6046 21.5 13.5V2.5C21.5 1.39543 20.6046 0.5 19.5 0.5Z" fill="white"/>
<path fill-rule="evenodd" clip-rule="evenodd" d="M0.5 0.5H9.5V7.5H0.5V0.5Z" fill="#444379"/>
<path fill-rule="evenodd" clip-rule="evenodd" d="M1.5 1.5V2.5H2.5V1.5H1.5ZM3.5 1.5V2.5H4.5V1.5H3.5ZM5.5 1.5V2.5H6.5V1.5H5.5ZM7.5 1.5V2.5H8.5V1.5H7.5ZM6.5 2.5V3.5H7.5V2.5H6.5ZM4.5 2.5V3.5H5.5V2.5H4.5ZM2.5 2.5V3.5H3.5V2.5H2.5ZM1.5 3.5V4.5H2.5V3.5H1.5ZM3.5 3.5V4.5H4.5V3.5H3.5ZM5.5 3.5V4.5H6.5V3.5H5.5ZM7.5 3.5V4.5H8.5V3.5H7.5ZM1.5 5.5V6.5H2.5V5.5H1.5ZM3.5 5.5V6.5H4.5V5.5H3.5ZM5.5 5.5V6.5H6.5V5.5H5.5ZM7.5 5.5V6.5H8.5V5.5H7.5ZM6.5 4.5V5.5H7.5V4.5H6.5ZM4.5 4.5V5.5H5.5V4.5H4.5ZM2.5 4.5V5.5H3.5V4.5H2.5Z" fill="#A7B6E7"/>
<path fill-rule="evenodd" clip-rule="evenodd" d="M9.5 0.5V1.5H21.5V0.5H9.5ZM9.5 2.5V3.5H21.5V2.5H9.5ZM9.5 4.5V5.5H21.5V4.5H9.5ZM9.5 6.5V7.5H21.5V6.5H9.5ZM0.5 8.5V9.5H21.5V8.5H0.5ZM0.5 10.5V11.5H21.5V10.5H0.5ZM0.5 12.5V13.5H21.5V12.5H0.5ZM0.5 14.5V15.5H21.5V14.5H0.5Z" fill="#E4364B"/>
<path d="M19.5 1H2.5C1.67157 1 1 1.67157 1 2.5V13.5C1 14.3284 1.67157 15 2.5 15H19.5C20.3284 15 21 14.3284 21 13.5V2.5C21 1.67157 20.3284 1 19.5 1Z" stroke="black"/>
</g>
</g>
<defs>
<clipPath id="clip0_0_55">
<rect width="21" height="15" fill="white" transform="translate(0.5 0.5)"/>
</clipPath>
</defs>
</svg>
